<svg width="48" height="48" viewBox="0 0 48 48" fill="none" xmlns="http://www.w3.org/2000/svg">
<rect width="48" height="48" fill="#ebf212"/>
<g id="type=symbol, color=black, size=48px">
<g id="Symbol">
<path d="M25.7586 6.08576L25.7644 19.1836C25.7652 21.2528 23.5637 22.5795 21.7345 21.612L8.60376 14.6672C9.6052 13.019 10.8645 11.5453 12.3245 10.3L22.6229 19.8178C23.1686 20.322 24.0288 19.7753 23.804 19.0673L19.8102 6.49083C21.1545 6.17052 22.5567 6 23.9987 6C24.5926 6 25.1794 6.02952 25.7586 6.08576Z" fill="white"/>
<path d="M22.1956 41.9103L22.1898 28.8785C22.189 26.8093 24.3905 25.4826 26.2197 26.4501L39.3552 33.3974C38.347 35.0412 37.0819 36.5101 35.6161 37.7497L25.3313 28.2442C24.7856 27.7401 23.9254 28.2867 24.1502 28.9947L28.1288 41.5237C26.8033 41.8349 25.4213 42 24.0006 42C23.3915 42 22.7891 41.9695 22.1956 41.9103Z" fill="white"/>
<path d="M28.1901 22.6777L37.7276 12.3589C36.4832 10.8932 35.0093 9.62874 33.36 8.62275L26.3956 21.7894C25.4281 23.6184 26.7551 25.8201 28.8243 25.8191L41.9095 25.8133C41.9691 25.217 42 24.6121 42 24C42 22.5766 41.8341 21.192 41.5217 19.8639L28.9406 23.8588C28.2326 24.0835 27.6859 23.2233 28.1901 22.6777Z" fill="white"/>
<path d="M6.08497 22.2487L19.1304 22.2429C21.1999 22.2421 22.5266 24.4436 21.5591 26.2726L14.6306 39.3714C12.9877 38.3678 11.5188 37.108 10.2782 35.648L19.7648 25.3843C20.269 24.8386 19.7221 23.9785 19.0141 24.2032L6.48905 28.1803C6.16993 26.8389 6 25.4394 6 24C6 23.409 6.02932 22.8249 6.08497 22.2487Z" fill="white"/>
</g>
</g>
</svg>
